<svg xmlns="http://www.w3.org/2000/svg" version="1.1" xmlns:xlink="http://www.w3.org/1999/xlink" xmlns:svgjs="http://svgjs.dev/svgjs" width="2000" height="631" viewBox="0 0 2000 631"><g transform="matrix(1,0,0,1,-1.2121212121212466,-0.04023276136865661)"><svg viewBox="0 0 396 125" data-background-color="#000000" preserveAspectRatio="xMidYMid meet" height="631" width="2000" xmlns="http://www.w3.org/2000/svg" xmlns:xlink="http://www.w3.org/1999/xlink"><g id="tight-bounds" transform="matrix(1,0,0,1,0.2400000000000091,0.007970039890778935)"><svg viewBox="0 0 395.52 124.98405992021847" height="124.98405992021847" width="395.52"><g><svg viewBox="0 0 395.52 124.98405992021847" height="124.98405992021847" width="395.52"><g transform="matrix(1,0,0,1,0,77.24516314250137)"><svg viewBox="0 0 395.52 47.738896777717095" height="47.738896777717095" width="395.52"><g id="textblocktransform"><svg viewBox="0 0 395.52 47.738896777717095" height="47.738896777717095" width="395.52" id="textblock"><g><svg viewBox="0 0 395.52 47.738896777717095" height="47.738896777717095" width="395.52"><g transform="matrix(1,0,0,1,0,0)"><svg width="395.52" viewBox="2.6 -32.55 274.63 33.15" height="47.738896777717095" data-palette-color="url(#66ffde03-68a1-4091-86a3-084321a0ad9a)"></svg></g></svg></g></svg></g></svg></g><g transform="matrix(1,0,0,1,164.77242232659748,0)"><svg viewBox="0 0 65.97515534680502 65.97515534680502" height="65.97515534680502" width="65.97515534680502"><g><svg xmlns="http://www.w3.org/2000/svg" viewBox="3 3 42 42" x="0" y="0" height="65.97515534680502" width="65.97515534680502" class="icon-icon-0" data-fill-palette-color="accent" id="icon-0"></svg></g></svg></g><g></g></svg></g><defs></defs><mask id="965c5a48-8fcb-4348-bfb0-9a3b1b8293a7"><g id="SvgjsG1892"><svg viewBox="0 0 395.52 124.98405992021847" height="124.98405992021847" width="395.52"><g><svg viewBox="0 0 395.52 124.98405992021847" height="124.98405992021847" width="395.52"><g transform="matrix(1,0,0,1,0,77.24516314250137)"><svg viewBox="0 0 395.52 47.738896777717095" height="47.738896777717095" width="395.52"><g id="SvgjsG1891"><svg viewBox="0 0 395.52 47.738896777717095" height="47.738896777717095" width="395.52" id="SvgjsSvg1890"><g><svg viewBox="0 0 395.52 47.738896777717095" height="47.738896777717095" width="395.52"><g transform="matrix(1,0,0,1,0,0)"><svg width="395.52" viewBox="2.6 -32.55 274.63 33.15" height="47.738896777717095" data-palette-color="url(#66ffde03-68a1-4091-86a3-084321a0ad9a)"><path d="M14.45 0.58L14.45 0.58Q8.53 0.58 5.56-2.75 2.6-6.08 2.6-12.2L2.6-12.2 2.6-19.78Q2.6-25.9 5.55-29.21 8.5-32.52 14.4-32.52L14.4-32.52Q16.3-32.52 17.86-32.18 19.43-31.83 20.65-31.28 21.88-30.73 22.73-30.13L22.73-30.13 23.08-26.28Q21.6-27.33 19.61-28.11 17.63-28.9 14.95-28.9L14.95-28.9Q10.93-28.9 8.88-26.51 6.83-24.13 6.83-19.73L6.83-19.73 6.83-12.35Q6.83-7.98 8.9-5.56 10.98-3.15 15.1-3.15L15.1-3.15Q17.75-3.15 19.79-3.93 21.83-4.7 23.33-5.83L23.33-5.83 22.98-1.88Q22.13-1.28 20.88-0.7 19.63-0.13 18.01 0.23 16.4 0.58 14.45 0.58ZM30.8 0L26.6 0 36.6-31.95 43.15-31.95 53.17 0 48.97 0 40.2-29.15 39.57-29.15 30.8 0ZM47.15-9.43L32.6-9.43 32.6-12.88 47.15-12.88 47.15-9.43ZM61.67 0L57.65 0 58.87-31.95 65.3-31.95 72.87-8.85 73.22-8.85 80.8-31.95 87.25-31.95 88.47 0 84.45 0 84-13.48 83.57-27.63 83.12-27.63 75.22-3.68 70.9-3.68 63-27.63 62.55-27.63 62.1-13.45 61.67 0ZM107.37-10.63L98.19-10.63 98.19-14.08 107.27-14.08Q110.54-14.08 112.02-15.71 113.49-17.35 113.49-20.23L113.49-20.23 113.49-22.4Q113.49-25.33 112.03-26.93 110.57-28.53 107.32-28.53L107.32-28.53 98.17-28.53 98.17-31.95 107.39-31.95Q112.74-31.95 115.18-29.44 117.62-26.93 117.62-22.53L117.62-22.53 117.62-20.13Q117.62-15.68 115.16-13.15 112.69-10.63 107.37-10.63L107.37-10.63ZM99.59 0L95.49 0 95.49-31.95 99.57-31.95 99.57-13.05 99.59-11.2 99.59 0ZM134.99 0.6L134.99 0.6Q128.99 0.6 126.13-2.49 123.27-5.58 123.27-11.48L123.27-11.48 123.27-31.95 127.42-31.95 127.42-11.38Q127.42-7.28 129.22-5.11 131.02-2.95 134.99-2.95L134.99-2.95Q138.99-2.95 140.78-5.11 142.56-7.28 142.56-11.38L142.56-11.38 142.56-31.95 146.72-31.95 146.72-11.48Q146.72-5.58 143.87-2.49 141.02 0.6 134.99 0.6ZM162.91 0.58L162.91 0.58Q160.61 0.58 158.7 0.2 156.79-0.18 155.29-0.73 153.79-1.28 152.79-1.83L152.79-1.83 152.36-5.95Q154.29-4.8 156.9-3.94 159.51-3.08 162.59-3.08L162.59-3.08Q166.29-3.08 168.06-4.39 169.84-5.7 169.84-8.33L169.84-8.33 169.84-8.72Q169.84-10.45 169.14-11.55 168.44-12.65 166.78-13.4 165.11-14.15 162.26-14.8L162.26-14.8Q158.66-15.65 156.5-16.81 154.34-17.98 153.38-19.73 152.41-21.48 152.41-24.08L152.41-24.08 152.41-24.3Q152.41-28.23 154.99-30.36 157.56-32.5 162.79-32.5L162.79-32.5Q166.21-32.5 168.63-31.8 171.04-31.1 172.56-30.25L172.56-30.25 172.94-26.45Q171.16-27.5 168.8-28.24 166.44-28.98 163.39-28.98L163.39-28.98Q160.96-28.98 159.46-28.4 157.96-27.83 157.29-26.75 156.61-25.68 156.61-24.15L156.61-24.15 156.61-24.05Q156.61-22.5 157.28-21.4 157.94-20.3 159.6-19.5 161.26-18.7 164.34-17.95L164.34-17.95Q167.86-17.13 169.99-16.05 172.11-14.98 173.08-13.25 174.04-11.53 174.04-8.75L174.04-8.75 174.04-8.22Q174.04-3.9 171.25-1.66 168.46 0.58 162.91 0.58ZM202.31 0.58L202.31 0.58Q196.38 0.58 193.42-2.75 190.46-6.08 190.46-12.2L190.46-12.2 190.46-19.78Q190.46-25.9 193.41-29.21 196.36-32.52 202.26-32.52L202.26-32.52Q204.16-32.52 205.72-32.18 207.28-31.83 208.51-31.28 209.73-30.73 210.58-30.13L210.58-30.13 210.93-26.28Q209.46-27.33 207.47-28.11 205.48-28.9 202.81-28.9L202.81-28.9Q198.78-28.9 196.73-26.51 194.68-24.13 194.68-19.73L194.68-19.73 194.68-12.35Q194.68-7.98 196.76-5.56 198.83-3.15 202.96-3.15L202.96-3.15Q205.61-3.15 207.65-3.93 209.68-4.7 211.18-5.83L211.18-5.83 210.83-1.88Q209.98-1.28 208.73-0.7 207.48-0.13 205.87 0.23 204.26 0.58 202.31 0.58ZM228.18 0.6L228.18 0.6Q222.13 0.6 218.98-2.74 215.83-6.08 215.83-12.3L215.83-12.3 215.83-19.68Q215.83-25.88 218.98-29.21 222.13-32.55 228.18-32.55L228.18-32.55Q234.23-32.55 237.38-29.21 240.53-25.88 240.53-19.68L240.53-19.68 240.53-12.3Q240.53-6.08 237.38-2.74 234.23 0.6 228.18 0.6ZM228.18-2.88L228.18-2.88Q232.23-2.88 234.28-5.29 236.33-7.7 236.33-12.13L236.33-12.13 236.33-19.85Q236.33-24.28 234.28-26.68 232.23-29.08 228.18-29.08L228.18-29.08Q224.16-29.08 222.11-26.68 220.06-24.28 220.06-19.85L220.06-19.85 220.06-12.13Q220.06-7.7 222.11-5.29 224.16-2.88 228.18-2.88ZM250.43 0L246.4 0 247.63-31.95 254.05-31.95 261.63-8.85 261.98-8.85 269.55-31.95 276-31.95 277.23 0 273.2 0 272.75-13.48 272.33-27.63 271.88-27.63 263.98-3.68 259.65-3.68 251.75-27.63 251.3-27.63 250.85-13.45 250.43 0Z" opacity="1" transform="matrix(1,0,0,1,0,0)" fill="white" class="wordmark-text-0" id="SvgjsPath1889"></path></svg></g></svg></g></svg></g></svg></g><g transform="matrix(1,0,0,1,164.77242232659748,0)"><svg viewBox="0 0 65.97515534680502 65.97515534680502" height="65.97515534680502" width="65.97515534680502"><g><svg xmlns="http://www.w3.org/2000/svg" viewBox="3 3 42 42" x="0" y="0" height="65.97515534680502" width="65.97515534680502" class="icon-icon-0" data-fill-palette-color="accent" id="SvgjsSvg1888"><g data-name="Layer 39" fill="black"><path d="M44 19H37V4A1.003 1.003 0 0 0 36 3H16A1.003 1.003 0 0 0 15 4V19H4A1.003 1.003 0 0 0 3 20V44A1.003 1.003 0 0 0 4 45H44A1.003 1.003 0 0 0 45 44V20A1.003 1.003 0 0 0 44 19M15 31H5V25H15ZM23 43H19L23 40ZM23 37.5L17 42V34H23ZM23 32H18.93L23 28.85ZM23 26.32L17 30.96V25H23ZM23 23H18.95L23 19.9ZM23 17.39L17 21.98V16H23ZM23 14H17V9H23ZM35 40H32V36H35ZM35 31H32V27H35ZM35 22H32V18H35ZM35 13H32V9H35ZM43 31H37V25H43Z" fill="black"></path></g></svg></g></svg></g><g></g></svg></g><defs><mask></mask></defs></svg><rect width="395.52" height="124.98405992021847" fill="black" stroke="none" visibility="hidden"></rect></g></mask><linearGradient x1="0" x2="1" y1="0.5" y2="0.5" id="66ffde03-68a1-4091-86a3-084321a0ad9a"><stop stop-color="#ffa62e" offset="0"></stop><stop stop-color="#f71b3d" offset="1"></stop></linearGradient><rect width="395.52" height="124.98405992021847" fill="#ffffff" mask="url(#965c5a48-8fcb-4348-bfb0-9a3b1b8293a7)" data-fill-palette-color="primary"></rect><mask id="691b38dd-13a7-4759-8ea6-9c5056a0e5a5"><g id="SvgjsG1911"><svg viewBox="0 0 395.52 124.98405992021847" height="124.98405992021847" width="395.52"><g><svg viewBox="0 0 395.52 124.98405992021847" height="124.98405992021847" width="395.52"><g transform="matrix(1,0,0,1,0,77.24516314250137)"><svg viewBox="0 0 395.52 47.738896777717095" height="47.738896777717095" width="395.52"><g id="SvgjsG1910"><svg viewBox="0 0 395.52 47.738896777717095" height="47.738896777717095" width="395.52" id="SvgjsSvg1909"><g><svg viewBox="0 0 395.52 47.738896777717095" height="47.738896777717095" width="395.52"><g transform="matrix(1,0,0,1,0,0)"><svg width="395.52" viewBox="2.6 -32.55 274.63 33.15" height="47.738896777717095" data-palette-color="url(#66ffde03-68a1-4091-86a3-084321a0ad9a)"></svg></g></svg></g></svg></g></svg></g><g transform="matrix(1,0,0,1,164.77242232659748,0)"><svg viewBox="0 0 65.97515534680502 65.97515534680502" height="65.97515534680502" width="65.97515534680502"><g><svg xmlns="http://www.w3.org/2000/svg" viewBox="3 3 42 42" x="0" y="0" height="65.97515534680502" width="65.97515534680502" class="icon-icon-0" data-fill-palette-color="accent" id="SvgjsSvg1908"><g data-name="Layer 39" fill="white"><path d="M44 19H37V4A1.003 1.003 0 0 0 36 3H16A1.003 1.003 0 0 0 15 4V19H4A1.003 1.003 0 0 0 3 20V44A1.003 1.003 0 0 0 4 45H44A1.003 1.003 0 0 0 45 44V20A1.003 1.003 0 0 0 44 19M15 31H5V25H15ZM23 43H19L23 40ZM23 37.5L17 42V34H23ZM23 32H18.93L23 28.85ZM23 26.32L17 30.96V25H23ZM23 23H18.95L23 19.9ZM23 17.39L17 21.98V16H23ZM23 14H17V9H23ZM35 40H32V36H35ZM35 31H32V27H35ZM35 22H32V18H35ZM35 13H32V9H35ZM43 31H37V25H43Z" fill="white"></path></g></svg></g></svg></g><g></g></svg></g><defs><mask></mask></defs><mask><g id="SvgjsG1907"><svg viewBox="0 0 395.52 124.98405992021847" height="124.98405992021847" width="395.52"><g><svg viewBox="0 0 395.52 124.98405992021847" height="124.98405992021847" width="395.52"><g transform="matrix(1,0,0,1,0,77.24516314250137)"><svg viewBox="0 0 395.52 47.738896777717095" height="47.738896777717095" width="395.52"><g id="SvgjsG1906"><svg viewBox="0 0 395.52 47.738896777717095" height="47.738896777717095" width="395.52" id="SvgjsSvg1905"><g><svg viewBox="0 0 395.52 47.738896777717095" height="47.738896777717095" width="395.52"><g transform="matrix(1,0,0,1,0,0)"><svg width="395.52" viewBox="2.6 -32.55 274.63 33.15" height="47.738896777717095" data-palette-color="url(#66ffde03-68a1-4091-86a3-084321a0ad9a)"><path d="M14.45 0.58L14.45 0.58Q8.53 0.58 5.56-2.75 2.6-6.08 2.6-12.2L2.6-12.2 2.6-19.78Q2.6-25.9 5.55-29.21 8.5-32.52 14.4-32.52L14.4-32.52Q16.3-32.52 17.86-32.18 19.43-31.83 20.65-31.28 21.88-30.73 22.73-30.13L22.73-30.13 23.08-26.28Q21.6-27.33 19.61-28.11 17.63-28.9 14.95-28.9L14.95-28.9Q10.93-28.9 8.88-26.51 6.83-24.13 6.83-19.73L6.83-19.73 6.83-12.35Q6.83-7.98 8.9-5.56 10.98-3.15 15.1-3.15L15.1-3.15Q17.75-3.15 19.79-3.93 21.83-4.7 23.33-5.83L23.33-5.83 22.98-1.88Q22.13-1.28 20.88-0.7 19.63-0.13 18.01 0.23 16.4 0.58 14.45 0.58ZM30.8 0L26.6 0 36.6-31.95 43.15-31.95 53.17 0 48.97 0 40.2-29.15 39.57-29.15 30.8 0ZM47.15-9.43L32.6-9.43 32.6-12.88 47.15-12.88 47.15-9.43ZM61.67 0L57.65 0 58.87-31.95 65.3-31.95 72.87-8.85 73.22-8.85 80.8-31.95 87.25-31.95 88.47 0 84.45 0 84-13.48 83.57-27.63 83.12-27.63 75.22-3.68 70.9-3.68 63-27.63 62.55-27.63 62.1-13.45 61.67 0ZM107.37-10.63L98.19-10.63 98.19-14.08 107.27-14.08Q110.54-14.08 112.02-15.71 113.49-17.35 113.49-20.23L113.49-20.23 113.49-22.4Q113.49-25.33 112.03-26.93 110.57-28.53 107.32-28.53L107.32-28.53 98.17-28.53 98.17-31.95 107.39-31.95Q112.74-31.95 115.18-29.44 117.62-26.93 117.62-22.53L117.62-22.53 117.62-20.13Q117.62-15.68 115.16-13.15 112.69-10.63 107.37-10.63L107.37-10.63ZM99.59 0L95.49 0 95.49-31.95 99.57-31.95 99.57-13.05 99.59-11.2 99.59 0ZM134.99 0.6L134.99 0.6Q128.99 0.6 126.13-2.49 123.27-5.58 123.27-11.48L123.27-11.48 123.27-31.95 127.42-31.95 127.42-11.38Q127.42-7.28 129.22-5.11 131.02-2.95 134.99-2.95L134.99-2.95Q138.99-2.95 140.78-5.11 142.56-7.28 142.56-11.38L142.56-11.38 142.56-31.95 146.72-31.95 146.72-11.48Q146.72-5.58 143.87-2.49 141.02 0.6 134.99 0.6ZM162.91 0.58L162.91 0.58Q160.61 0.58 158.7 0.2 156.79-0.18 155.29-0.73 153.79-1.28 152.79-1.83L152.79-1.83 152.36-5.95Q154.29-4.8 156.9-3.94 159.51-3.08 162.59-3.08L162.59-3.08Q166.29-3.08 168.06-4.39 169.84-5.7 169.84-8.33L169.84-8.33 169.84-8.72Q169.84-10.45 169.14-11.55 168.44-12.65 166.78-13.4 165.11-14.15 162.26-14.8L162.26-14.8Q158.66-15.65 156.5-16.81 154.34-17.98 153.38-19.73 152.41-21.48 152.41-24.08L152.41-24.08 152.41-24.3Q152.41-28.23 154.99-30.36 157.56-32.5 162.79-32.5L162.79-32.5Q166.21-32.5 168.63-31.8 171.04-31.1 172.56-30.25L172.56-30.25 172.94-26.45Q171.16-27.5 168.8-28.24 166.44-28.98 163.39-28.98L163.39-28.98Q160.96-28.98 159.46-28.4 157.96-27.83 157.29-26.75 156.61-25.68 156.61-24.15L156.61-24.15 156.61-24.05Q156.61-22.5 157.28-21.4 157.94-20.3 159.6-19.5 161.26-18.7 164.34-17.95L164.34-17.95Q167.86-17.13 169.99-16.05 172.11-14.98 173.08-13.25 174.04-11.53 174.04-8.75L174.04-8.75 174.04-8.22Q174.04-3.9 171.25-1.66 168.46 0.58 162.91 0.58ZM202.31 0.58L202.31 0.58Q196.38 0.58 193.42-2.75 190.46-6.08 190.46-12.2L190.46-12.2 190.46-19.78Q190.46-25.9 193.41-29.21 196.36-32.52 202.26-32.52L202.26-32.52Q204.16-32.52 205.72-32.18 207.28-31.83 208.51-31.28 209.73-30.73 210.58-30.13L210.58-30.13 210.93-26.28Q209.46-27.33 207.47-28.11 205.48-28.9 202.81-28.9L202.81-28.9Q198.78-28.9 196.73-26.51 194.68-24.13 194.68-19.73L194.68-19.73 194.68-12.35Q194.68-7.98 196.76-5.56 198.83-3.15 202.96-3.15L202.96-3.15Q205.61-3.15 207.65-3.93 209.68-4.7 211.18-5.83L211.18-5.83 210.83-1.88Q209.98-1.28 208.73-0.7 207.48-0.13 205.87 0.23 204.26 0.58 202.31 0.58ZM228.18 0.6L228.18 0.6Q222.13 0.6 218.98-2.74 215.83-6.08 215.83-12.3L215.83-12.3 215.83-19.68Q215.83-25.88 218.98-29.21 222.13-32.55 228.18-32.55L228.18-32.55Q234.23-32.55 237.38-29.21 240.53-25.88 240.53-19.68L240.53-19.68 240.53-12.3Q240.53-6.08 237.38-2.74 234.23 0.6 228.18 0.6ZM228.18-2.88L228.18-2.88Q232.23-2.88 234.28-5.29 236.33-7.7 236.33-12.13L236.33-12.13 236.33-19.85Q236.33-24.28 234.28-26.68 232.23-29.08 228.18-29.08L228.18-29.08Q224.16-29.08 222.11-26.68 220.06-24.28 220.06-19.85L220.06-19.85 220.06-12.13Q220.06-7.7 222.11-5.29 224.16-2.88 228.18-2.88ZM250.43 0L246.4 0 247.63-31.95 254.05-31.95 261.63-8.85 261.98-8.85 269.55-31.95 276-31.95 277.23 0 273.2 0 272.75-13.48 272.33-27.63 271.88-27.63 263.98-3.68 259.65-3.68 251.75-27.63 251.3-27.63 250.85-13.45 250.43 0Z" opacity="1" transform="matrix(1,0,0,1,0,0)" fill="black" class="wordmark-text-0" id="SvgjsPath1904"></path></svg></g></svg></g></svg></g></svg></g><g transform="matrix(1,0,0,1,164.77242232659748,0)"><svg viewBox="0 0 65.97515534680502 65.97515534680502" height="65.97515534680502" width="65.97515534680502"><g><svg xmlns="http://www.w3.org/2000/svg" viewBox="3 3 42 42" x="0" y="0" height="65.97515534680502" width="65.97515534680502" class="icon-icon-0" data-fill-palette-color="accent" id="SvgjsSvg1903"><g data-name="Layer 39" fill="black"><path d="M44 19H37V4A1.003 1.003 0 0 0 36 3H16A1.003 1.003 0 0 0 15 4V19H4A1.003 1.003 0 0 0 3 20V44A1.003 1.003 0 0 0 4 45H44A1.003 1.003 0 0 0 45 44V20A1.003 1.003 0 0 0 44 19M15 31H5V25H15ZM23 43H19L23 40ZM23 37.5L17 42V34H23ZM23 32H18.93L23 28.85ZM23 26.32L17 30.96V25H23ZM23 23H18.95L23 19.9ZM23 17.39L17 21.98V16H23ZM23 14H17V9H23ZM35 40H32V36H35ZM35 31H32V27H35ZM35 22H32V18H35ZM35 13H32V9H35ZM43 31H37V25H43Z" fill="black"></path></g></svg></g></svg></g><g></g></svg></g><defs><mask></mask></defs></svg><rect width="395.52" height="124.98405992021847" fill="black" stroke="none" visibility="hidden"></rect></g></mask></svg><rect width="395.52" height="124.98405992021847" fill="black" stroke="none" visibility="hidden"></rect></g></mask><linearGradient x1="0" x2="1" y1="0.5" y2="0.5" id="5e374bf2-1700-4a08-8088-be5819c6fe04"><stop stop-color="#ffa62e" offset="0"></stop><stop stop-color="#f71b3d" offset="1"></stop></linearGradient><rect width="395.52" height="124.98405992021847" fill="#ffffff" mask="url(#691b38dd-13a7-4759-8ea6-9c5056a0e5a5)" data-fill-palette-color="accent"></rect></svg><rect width="395.52" height="124.98405992021847" fill="none" stroke="none" visibility="hidden"></rect></g></svg></g></svg>